<?xml version="1.0" standalone="no"?><!DOCTYPE svg PUBLIC "-//W3C//DTD SVG 1.1//EN" "http://www.w3.org/Graphics/SVG/1.1/DTD/svg11.dtd"><svg t="1640187312672" class="icon" viewBox="0 0 1024 1024" version="1.1" xmlns="http://www.w3.org/2000/svg" p-id="2092" xmlns:xlink="http://www.w3.org/1999/xlink" width="200" height="200"><defs><style type="text/css"></style></defs><path d="M347.136 600.064H143.36c-67.584 0-122.88-55.296-122.88-122.88V143.36C20.48 75.776 75.776 20.48 143.36 20.48h203.776c67.584 0 122.88 55.296 122.88 122.88v333.824c0 67.584-55.296 122.88-122.88 122.88zM880.64 339.968H676.864c-67.584 0-122.88-55.296-122.88-122.88V143.36c0-67.584 55.296-122.88 122.88-122.88H880.64c67.584 0 122.88 55.296 122.88 122.88v73.728c0 67.584-55.296 122.88-122.88 122.88zM347.136 1003.52H143.36C75.776 1003.52 20.48 948.224 20.48 880.64v-73.728c0-67.584 55.296-122.88 122.88-122.88h203.776c67.584 0 122.88 55.296 122.88 122.88V880.64c0 67.584-55.296 122.88-122.88 122.88zM880.64 1003.52H676.864c-67.584 0-122.88-55.296-122.88-122.88V546.816c0-67.584 55.296-122.88 122.88-122.88H880.64c67.584 0 122.88 55.296 122.88 122.88V880.64c0 67.584-55.296 122.88-122.88 122.88z" p-id="2093"></path></svg>